<svg xmlns="http://www.w3.org/2000/svg" xmlns:xlink="http://www.w3.org/1999/xlink" width="250" zoomAndPan="magnify" viewBox="0 0 187.5 187.499992" height="250" preserveAspectRatio="xMidYMid meet" version="1.0"><defs><g/><clipPath id="61bf80a506"><rect x="0" width="131" y="0" height="187"/></clipPath><clipPath id="19d4939114"><path d="M 65.71875 109.96875 L 93.5 109.96875 L 93.5 117.976562 L 65.71875 117.976562 Z M 65.71875 109.96875 " clip-rule="nonzero"/></clipPath><clipPath id="36987bae8b"><path d="M 0.71875 0.96875 L 28.5 0.96875 L 28.5 8.976562 L 0.71875 8.976562 Z M 0.71875 0.96875 " clip-rule="nonzero"/></clipPath><clipPath id="27d0ca5fc2"><rect x="0" width="29" y="0" height="9"/></clipPath><clipPath id="af63317a87"><path d="M 44 96 L 99 96 L 99 115 L 44 115 Z M 44 96 " clip-rule="nonzero"/></clipPath><clipPath id="182dc2c22c"><path d="M 100.355469 108.382812 L 97.265625 119.679688 L 42.8125 104.789062 L 45.898438 93.492188 Z M 100.355469 108.382812 " clip-rule="nonzero"/></clipPath><clipPath id="a141a8a830"><path d="M 58.65625 109.121094 C 49.917969 106.734375 43.527344 102.269531 44.378906 99.148438 C 45.230469 96.027344 53.007812 95.4375 61.746094 97.824219 C 86.429688 104.574219 98.8125 114.03125 98.8125 114.03125 C 98.8125 114.03125 82.710938 115.699219 58.65625 109.121094 Z M 58.65625 109.121094 " clip-rule="nonzero"/></clipPath><clipPath id="c57a2e7db9"><path d="M 0 0 L 54.855469 0 L 54.855469 19 L 0 19 Z M 0 0 " clip-rule="nonzero"/></clipPath><clipPath id="0b4a534a18"><path d="M 56.355469 12.382812 L 53.265625 23.679688 L -1.1875 8.789062 L 1.898438 -2.507812 Z M 56.355469 12.382812 " clip-rule="nonzero"/></clipPath><clipPath id="de6a518024"><path d="M 14.65625 13.121094 C 5.917969 10.734375 -0.472656 6.269531 0.378906 3.148438 C 1.230469 0.0273438 9.007812 -0.5625 17.746094 1.824219 C 42.429688 8.574219 54.8125 18.03125 54.8125 18.03125 C 54.8125 18.03125 38.710938 19.699219 14.65625 13.121094 Z M 14.65625 13.121094 " clip-rule="nonzero"/></clipPath><clipPath id="954ad9624d"><rect x="0" width="55" y="0" height="19"/></clipPath></defs><g transform="matrix(1, 0, 0, 1, 43, 0)"><g clip-path="url(#61bf80a506)"><g fill="#000000" fill-opacity="1"><g transform="translate(0.548468, 147.877265)"><g><path d="M 2.265625 0 L 23.453125 -100.25 L 58.96875 -100.25 L 58.96875 -29.078125 L 59.515625 -29.078125 L 92.296875 -100.25 L 128.375 -100.25 L 106.90625 0 L 82.84375 0 L 90.859375 -37.640625 C 92.367188 -44.640625 93.691406 -50.378906 94.828125 -54.859375 C 95.972656 -59.335938 96.921875 -62.914062 97.671875 -65.59375 C 98.429688 -68.269531 98.972656 -70.382812 99.296875 -71.9375 L 98.75 -71.9375 L 65.6875 0 L 40.328125 0 L 40.328125 -71.9375 L 39.765625 -71.9375 C 39.035156 -67.226562 38.328125 -62.757812 37.640625 -58.53125 C 36.960938 -54.300781 36.3125 -50.378906 35.6875 -46.765625 C 35.070312 -43.148438 34.46875 -39.835938 33.875 -36.828125 L 26.125 0 Z M 2.265625 0 "/></g></g></g></g></g><g clip-path="url(#19d4939114)"><g transform="matrix(1, 0, 0, 1, 65, 109)"><g clip-path="url(#27d0ca5fc2)"><g clip-path="url(#36987bae8b)"><path fill="#000000" d="M 0.71875 0.96875 L 28.5 0.96875 L 28.5 8.976562 L 0.71875 8.976562 Z M 0.71875 0.96875 " fill-opacity="1" fill-rule="nonzero"/></g></g></g></g><g clip-path="url(#af63317a87)"><g clip-path="url(#182dc2c22c)"><g clip-path="url(#a141a8a830)"><g transform="matrix(1, 0, 0, 1, 44, 96)"><g clip-path="url(#954ad9624d)"><g clip-path="url(#c57a2e7db9)"><g clip-path="url(#0b4a534a18)"><g clip-path="url(#de6a518024)"><path fill="#ffffff" d="M 56.355469 12.382812 L 53.265625 23.679688 L -1.144531 8.800781 L 1.945312 -2.496094 Z M 56.355469 12.382812 " fill-opacity="1" fill-rule="nonzero"/></g></g></g></g></g></g></g></g></svg>