<?xml version="1.0" encoding="utf-8"?>
<!-- Generator: Adobe Illustrator 22.0.1, SVG Export Plug-In . SVG Version: 6.00 Build 0)  -->
<svg version="1.1" id="Capa_1" xmlns="http://www.w3.org/2000/svg" xmlns:xlink="http://www.w3.org/1999/xlink" x="0px" y="0px"
	 viewBox="0 0 144 80" style="enable-background:new 0 0 144 80;" xml:space="preserve">
<style type="text/css">
	.st0{fill:#7DB947;}
	.st1{fill:#2AA4CA;}
	.st2{fill:#E31B81;}
	.st3{fill:#EE7B24;}
	.st4{enable-background:new    ;}
</style>
<title>201902-esn-country_logo-master-RGB_Data Set 13</title>
<g id="logo">
	<g>
		<g>
			<g>
				<path d="M12.5,60.2v0.7H8v-6.2h4.4v0.7H8.8v2h2.8v0.7H8.8v2.1L12.5,60.2z"/>
				<path d="M16.7,56.2l-0.1,0.7c-0.2-0.1-0.4-0.1-0.6-0.1c-0.2,0-0.4,0.1-0.6,0.2c-0.2,0.1-0.4,0.3-0.5,0.5
					c-0.1,0.3-0.2,0.6-0.2,0.8v2.6H14v-4.7h0.6l0.1,0.8c0.3-0.6,0.9-0.9,1.5-0.9C16.4,56.1,16.6,56.1,16.7,56.2z"/>
				<path d="M22.3,60.3l0,0.6C22,61,21.9,61,21.7,61c-0.2,0-0.4,0-0.6-0.2c-0.2-0.1-0.3-0.3-0.3-0.5c-0.2,0.2-0.4,0.4-0.6,0.5
					c-0.3,0.1-0.6,0.2-0.9,0.2c-0.4,0-0.8-0.1-1.2-0.3c-0.3-0.2-0.5-0.6-0.5-0.9c0-0.4,0.2-0.7,0.5-0.9c0.4-0.3,0.9-0.5,1.4-0.5
					l1.3-0.2v-0.3c0-0.3-0.1-0.6-0.3-0.8c-0.2-0.2-0.5-0.3-0.8-0.3c-0.3,0-0.6,0.1-0.8,0.2c-0.2,0.2-0.4,0.4-0.5,0.7l-0.6-0.4
					c0.1-0.4,0.4-0.7,0.7-0.8c0.4-0.2,0.8-0.3,1.2-0.3c0.5,0,1,0.1,1.4,0.4c0.4,0.3,0.6,0.7,0.5,1.2V60c0,0.2,0.1,0.3,0.2,0.3
					c0,0,0.1,0,0.1,0C22,60.3,22.2,60.3,22.3,60.3z M20.4,60.1c0.3-0.2,0.4-0.4,0.4-0.7v-0.7l-1.1,0.2c-0.3,0-0.7,0.2-1,0.3
					c-0.2,0.1-0.3,0.3-0.3,0.5c0,0.2,0.1,0.4,0.2,0.5c0.2,0.1,0.4,0.2,0.6,0.2C19.7,60.3,20,60.2,20.4,60.1z"/>
				<path d="M24.1,60.7c-0.4-0.2-0.6-0.4-0.8-0.8l0.6-0.4c0.1,0.3,0.3,0.5,0.6,0.6c0.3,0.1,0.6,0.2,0.9,0.2c0.3,0,0.6-0.1,0.9-0.2
					c0.2-0.1,0.3-0.3,0.3-0.5c0-0.2-0.1-0.4-0.3-0.4c-0.3-0.2-0.7-0.2-1-0.3c-0.4-0.1-0.7-0.2-1.1-0.3c-0.2-0.1-0.4-0.2-0.6-0.4
					c-0.1-0.2-0.2-0.4-0.2-0.7c0-0.3,0.1-0.5,0.2-0.7c0.2-0.2,0.4-0.4,0.7-0.5c0.3-0.1,0.7-0.2,1-0.2c0.4,0,0.8,0.1,1.2,0.3
					c0.3,0.2,0.5,0.5,0.7,0.9l-0.6,0.4c-0.1-0.3-0.2-0.5-0.5-0.7c-0.5-0.3-1.1-0.3-1.6,0c-0.2,0.1-0.3,0.3-0.3,0.5
					c0,0.2,0.1,0.4,0.3,0.5c0.3,0.1,0.7,0.2,1,0.3c0.5,0,1,0.2,1.4,0.5c0.3,0.2,0.4,0.6,0.4,0.9c0,0.3-0.1,0.5-0.2,0.7
					c-0.2,0.2-0.4,0.4-0.7,0.5c-0.3,0.1-0.7,0.2-1,0.2C24.9,61,24.4,60.9,24.1,60.7z"/>
				<path d="M35.2,56.3c0.3,0.1,0.5,0.3,0.7,0.6c0.2,0.3,0.3,0.6,0.3,1v3h-0.8V58c0-0.4-0.1-0.7-0.3-1c-0.2-0.2-0.5-0.3-0.8-0.3
					c-0.2,0-0.5,0.1-0.7,0.2c-0.2,0.1-0.4,0.3-0.5,0.5c-0.1,0.3-0.2,0.5-0.2,0.8v2.6H32V58c0-0.3-0.1-0.7-0.3-0.9
					c-0.2-0.2-0.5-0.3-0.8-0.3c-0.2,0-0.5,0.1-0.7,0.2c-0.2,0.1-0.4,0.3-0.5,0.5c-0.1,0.3-0.2,0.6-0.2,0.9v2.5h-0.8v-4.7h0.7l0,0.7
					c0.2-0.3,0.4-0.5,0.6-0.6c0.3-0.1,0.6-0.2,0.9-0.2c0.3,0,0.7,0.1,1,0.2c0.3,0.2,0.5,0.4,0.7,0.7c0.1-0.3,0.4-0.5,0.7-0.7
					c0.3-0.2,0.7-0.2,1-0.2C34.6,56.1,34.9,56.2,35.2,56.3z"/>
				<path d="M42,56.2v4.7h-0.7l0-0.7c-0.7,0.9-2,1.1-3,0.4c-0.4-0.3-0.5-0.8-0.5-1.3v-3.1h0.8v2.9c0,0.4,0.1,0.7,0.3,1
					c0.2,0.2,0.5,0.3,0.8,0.3c0.4,0,0.8-0.1,1.1-0.4c0.3-0.3,0.5-0.8,0.4-1.2v-2.6H42z"/>
				<path d="M44.2,60.7c-0.4-0.2-0.6-0.4-0.8-0.8l0.6-0.4c0.1,0.3,0.3,0.5,0.6,0.6c0.3,0.1,0.6,0.2,0.9,0.2c0.3,0,0.6-0.1,0.8-0.2
					c0.2-0.1,0.3-0.3,0.3-0.5c0-0.2-0.1-0.4-0.3-0.4c-0.3-0.2-0.7-0.3-1-0.3c-0.4-0.1-0.7-0.2-1.1-0.3c-0.2-0.1-0.4-0.2-0.6-0.4
					c-0.1-0.2-0.2-0.4-0.2-0.7c0-0.3,0.1-0.5,0.2-0.7c0.2-0.2,0.4-0.4,0.7-0.5c0.3-0.1,0.7-0.2,1-0.2c0.4,0,0.8,0.1,1.2,0.3
					c0.3,0.2,0.6,0.5,0.7,0.9l-0.6,0.4c-0.1-0.3-0.2-0.5-0.5-0.7c-0.2-0.1-0.5-0.2-0.8-0.2c-0.3,0-0.6,0.1-0.8,0.2
					c-0.2,0.1-0.3,0.3-0.3,0.5c0,0.2,0.1,0.4,0.3,0.5c0.3,0.2,0.7,0.2,1,0.3c0.5,0.1,1,0.2,1.4,0.5c0.3,0.2,0.4,0.6,0.4,0.9
					c0,0.3-0.1,0.5-0.2,0.7c-0.2,0.2-0.4,0.4-0.7,0.5c-0.3,0.1-0.7,0.2-1,0.2C45,61,44.6,60.9,44.2,60.7z"/>
			</g>
			<g>
				<path d="M58.5,55.9l-0.7,0.5c-0.1-0.4-0.4-0.7-0.7-0.9c-0.3-0.2-0.7-0.3-1.1-0.3c-0.4,0-0.8,0.1-1.1,0.3
					c-0.3,0.2-0.4,0.5-0.4,0.8c0,0.2,0.1,0.4,0.2,0.5c0.1,0.2,0.3,0.3,0.5,0.3c0.3,0.1,0.7,0.2,1,0.3c0.6,0.1,1.2,0.3,1.8,0.6
					c0.4,0.3,0.5,0.7,0.5,1.2c0,0.3-0.1,0.7-0.3,0.9c-0.2,0.3-0.5,0.5-0.8,0.6c-0.9,0.3-2,0.3-2.9-0.2c-0.4-0.2-0.8-0.6-1-1l0.7-0.5
					c0.2,0.4,0.4,0.7,0.8,0.9c0.4,0.2,0.8,0.3,1.3,0.3c0.4,0,0.8-0.1,1.2-0.3c0.3-0.2,0.4-0.4,0.4-0.8c0-0.3-0.1-0.5-0.4-0.7
					c-0.4-0.2-0.9-0.4-1.4-0.4c-0.6-0.1-1.2-0.3-1.8-0.6c-0.3-0.3-0.5-0.7-0.5-1.1c0-0.3,0.1-0.7,0.3-0.9c0.2-0.3,0.5-0.5,0.8-0.7
					c0.4-0.2,0.8-0.3,1.2-0.3C57,54.5,58,55,58.5,55.9z"/>
				<path d="M63.1,60.6c-0.3,0.3-0.8,0.4-1.2,0.4c-0.3,0-0.7-0.1-0.9-0.3c-0.3-0.3-0.4-0.6-0.4-1v-2.9h-1v-0.7h1V55l0.8-0.2v1.3h1.8
					v0.7h-1.8v2.8c0,0.2,0.1,0.4,0.2,0.5c0.1,0.1,0.3,0.2,0.5,0.2c0.3,0,0.6-0.1,0.8-0.3L63.1,60.6z"/>
				<path d="M68.5,56.2v4.7h-0.7v-0.7c-0.4,0.6-1,0.9-1.7,0.8c-0.5,0-0.9-0.1-1.3-0.4c-0.4-0.3-0.5-0.8-0.5-1.3v-3.1h0.8v2.9
					c0,0.4,0.1,0.7,0.3,1c0.2,0.2,0.5,0.3,0.8,0.3c0.4,0,0.8-0.1,1.1-0.4c0.3-0.3,0.5-0.7,0.4-1.2v-2.6H68.5z"/>
				<path d="M74.5,54v6.9h-0.7l-0.1-0.8c-0.1,0.3-0.4,0.5-0.6,0.7c-0.3,0.2-0.7,0.3-1,0.3c-0.6,0-1.2-0.2-1.6-0.7
					c-0.8-1.1-0.8-2.5,0-3.6c0.4-0.4,1-0.7,1.6-0.7c0.3,0,0.6,0.1,0.9,0.2c0.3,0.1,0.5,0.3,0.6,0.6V54H74.5z M73.4,59.9
					c0.3-0.4,0.4-0.8,0.4-1.3v-0.1c0-0.5-0.1-0.9-0.4-1.3c-0.3-0.3-0.7-0.5-1.1-0.5c-0.4,0-0.8,0.2-1.1,0.5c-0.5,0.8-0.5,1.8,0,2.6
					c0.3,0.3,0.7,0.5,1.1,0.5C72.7,60.4,73.1,60.2,73.4,59.9z"/>
				<path d="M80.4,58.8h-3.6c0,0.4,0.2,0.8,0.5,1.1c0.3,0.3,0.7,0.4,1.1,0.4c0.3,0,0.6-0.1,0.9-0.2c0.2-0.1,0.4-0.3,0.5-0.5l0.6,0.3
					c-0.2,0.3-0.4,0.6-0.8,0.8c-0.4,0.2-0.8,0.3-1.2,0.3c-0.6,0-1.2-0.2-1.7-0.7c-0.4-0.5-0.7-1.1-0.6-1.8c0-0.7,0.2-1.3,0.6-1.8
					c0.4-0.4,1-0.7,1.7-0.7c0.4,0,0.8,0.1,1.2,0.3c0.3,0.2,0.6,0.5,0.7,0.8c0.2,0.4,0.2,0.7,0.2,1.1C80.4,58.5,80.4,58.6,80.4,58.8z
					 M77.3,57.1c-0.3,0.3-0.4,0.6-0.5,1h2.9c0-0.4-0.2-0.7-0.4-1c-0.3-0.3-0.6-0.4-1-0.4C77.9,56.7,77.6,56.9,77.3,57.1z"/>
				<path d="M85.6,56.5c0.4,0.3,0.6,0.8,0.5,1.3v3h-0.8v-2.7c0-0.4-0.1-0.8-0.3-1.1c-0.2-0.2-0.5-0.3-0.8-0.3
					c-0.2,0-0.5,0.1-0.7,0.2c-0.2,0.1-0.4,0.3-0.6,0.5c-0.1,0.3-0.2,0.6-0.2,0.9v2.5H82v-4.7h0.7v0.7c0.2-0.3,0.4-0.5,0.7-0.6
					c0.3-0.1,0.6-0.2,0.9-0.2C84.8,56.1,85.2,56.2,85.6,56.5z"/>
				<path d="M90.8,60.6C90.5,60.9,90,61,89.6,61c-0.3,0-0.7-0.1-0.9-0.3c-0.3-0.3-0.4-0.6-0.4-1v-2.9h-1v-0.7h1V55l0.8-0.2v1.3h1.8
					v0.7H89v2.8c0,0.2,0.1,0.4,0.2,0.5c0.1,0.1,0.3,0.2,0.5,0.2c0.3,0,0.6-0.1,0.8-0.3L90.8,60.6z"/>
			</g>
			<g>
				<path d="M101.8,60.9h-0.9l-2.6-4.2l-0.7-1.2l0,0v1v4.4h-0.7v-6.2h1l2.6,4.2l0.7,1.3l0,0v-1v-4.4h0.7L101.8,60.9z"/>
				<path d="M107.8,58.8h-3.6c0,0.4,0.2,0.8,0.5,1.1c0.3,0.3,0.7,0.4,1.1,0.4c0.3,0,0.6-0.1,0.9-0.2c0.2-0.1,0.4-0.3,0.5-0.5
					l0.6,0.3c-0.2,0.3-0.4,0.6-0.8,0.8c-0.4,0.2-0.8,0.3-1.2,0.3c-0.6,0-1.2-0.2-1.7-0.7c-0.4-0.5-0.6-1.2-0.6-1.8
					c0-0.7,0.2-1.3,0.6-1.8c0.4-0.5,1-0.7,1.7-0.7c0.4,0,0.8,0.1,1.2,0.3c0.3,0.2,0.6,0.5,0.7,0.8c0.2,0.3,0.3,0.7,0.3,1.1
					C107.8,58.5,107.8,58.6,107.8,58.8z M104.7,57.1c-0.3,0.3-0.4,0.6-0.5,1h2.9c0-0.4-0.2-0.7-0.4-1c-0.3-0.3-0.6-0.4-1-0.4
					C105.3,56.7,105,56.9,104.7,57.1z"/>
				<path d="M112.3,60.6c-0.3,0.3-0.8,0.5-1.3,0.4c-0.4,0-0.7-0.1-1-0.3c-0.3-0.3-0.4-0.6-0.4-1v-2.9h-1v-0.7h1V55l0.8-0.2v1.3h1.8
					v0.7h-1.8v2.8c0,0.2,0.1,0.4,0.2,0.5c0.1,0.1,0.3,0.2,0.5,0.2c0.3,0,0.6-0.1,0.8-0.3L112.3,60.6z"/>
				<path d="M120.6,56.2l-1.6,4.7h-0.8l-1.3-3.8l-1.3,3.8h-0.8l-1.7-4.7h0.8l1.2,3.8l1.3-3.8h0.8l1.3,3.8l1.2-3.8L120.6,56.2z"/>
				<path d="M125.5,56.7c0.8,1.1,0.8,2.5,0,3.6c-0.4,0.4-1.1,0.7-1.7,0.7c-0.6,0-1.2-0.2-1.7-0.7c-0.8-1.1-0.8-2.5,0-3.6
					c0.4-0.4,1.1-0.7,1.7-0.7C124.5,56,125.1,56.3,125.5,56.7z M122.7,57.2c-0.5,0.8-0.5,1.8,0,2.6c0.6,0.6,1.6,0.7,2.2,0.1
					c0,0,0,0,0.1-0.1c0.5-0.8,0.5-1.8,0-2.6C124.4,56.6,123.4,56.6,122.7,57.2C122.8,57.2,122.7,57.2,122.7,57.2z"/>
				<path d="M130.5,56.2l-0.1,0.7c-0.2-0.1-0.4-0.1-0.6-0.1c-0.2,0-0.4,0.1-0.6,0.2c-0.2,0.1-0.4,0.3-0.5,0.5
					c-0.1,0.3-0.2,0.6-0.2,0.8v2.6h-0.8v-4.7h0.6l0.1,0.8c0.3-0.6,0.9-0.9,1.5-0.9C130.1,56.1,130.3,56.1,130.5,56.2z"/>
				<path d="M133.5,58.6l-1,1v1.3h-0.8V54h0.8v4.6l2.5-2.5h0.9L134,58l2,2.9h-0.9L133.5,58.6z"/>
			</g>
		</g>
		<path d="M77,40v3c0,0.6-0.4,1-1,1H57c-0.6,0-1-0.4-1-1V13c0-0.6,0.4-1,1-1h18c0.6,0,1,0.4,1,1v3c0,0.6-0.4,1-1,1H61v9h11
			c0.6,0,1,0.4,1,1v3c0,0.6-0.4,1-1,1H61v8h15C76.6,39,77,39.4,77,40z"/>
		<path d="M116,44h-3c-0.6,0-1-0.4-1-1V13c0-0.6,0.4-1,1-1h4.4c0.4,0,0.7,0.2,0.9,0.5L131,36V13c0-0.6,0.4-1,1-1h3c0.6,0,1,0.4,1,1
			v30c0,0.6-0.4,1-1,1h-4.4c-0.4,0-0.7-0.2-0.9-0.5L117,21v22C117,43.6,116.6,44,116,44z"/>
		<g>
			<path class="st0" d="M31,9v11.8L29.7,24h-3.3L25,20.8V9c0-0.6,0.4-1,1-1h4C30.6,8,31,8.4,31,9z"/>
			<path class="st1" d="M16.7,12.7l8.3,8.1l1.4,3.2L24,26.4L20.8,25l-8.1-8.3c-0.4-0.4-0.4-1,0-1.4l2.6-2.6
				C15.7,12.3,16.3,12.3,16.7,12.7C16.7,12.7,16.7,12.7,16.7,12.7z"/>
			<path class="st2" d="M9,25h11.8l3.2,1.3v3.3L20.8,31H9c-0.6,0-1-0.4-1-1v-4C8,25.4,8.4,25,9,25z"/>
			<path class="st3" d="M12.5,39.3l8.3-8.3l3.2-1.4l2.4,2.4L25,35.2l-8.3,8.1c-0.4,0.4-1,0.4-1.4,0l-2.8-2.6
				C12.1,40.3,12.1,39.7,12.5,39.3C12.5,39.3,12.5,39.3,12.5,39.3z"/>
			<path class="st1" d="M25,47V35.2l1.3-3.2h3.3l1.3,3.2V47c0,0.6-0.4,1-1,1h-4C25.4,48,25,47.6,25,47z"/>
			<path class="st0" d="M39.3,43.3L31,35.2L29.6,32l2.4-2.4l3.2,1.4l8.1,8.3c0.4,0.4,0.4,1,0,1.4l-2.6,2.6
				C40.3,43.7,39.7,43.7,39.3,43.3C39.3,43.3,39.3,43.3,39.3,43.3z"/>
			<path class="st3" d="M47,31H35.2L32,29.7v-3.3l3.2-1.3H47c0.6,0,1,0.4,1,1v4C48,30.6,47.6,31,47,31z"/>
			<path class="st2" d="M43.3,16.7L35.2,25L32,26.4L29.6,24l1.4-3.2l8.3-8.1c0.4-0.4,1-0.4,1.4,0l2.6,2.6
				C43.7,15.7,43.7,16.3,43.3,16.7C43.3,16.7,43.3,16.7,43.3,16.7z"/>
		</g>
		<path d="M106.1,35.3c0,1.8-0.5,3.5-1.5,4.9c-1.1,1.5-2.6,2.6-4.3,3.3c-4.6,1.8-9.8,1.5-14.2-0.8c-1.3-0.8-2.4-1.8-3.4-2.9
			c-0.4-0.4-0.3-1.1,0.1-1.4c0,0,0,0,0.1,0l2.3-1.8c0.4-0.3,1.1-0.2,1.4,0.2c0,0,0,0,0,0c0.5,0.7,1.1,1.3,1.9,1.8
			c1.7,1,3.7,1.5,5.7,1.5c1.9,0.1,3.7-0.3,5.3-1.3c1.2-0.7,1.9-2,1.8-3.4c0-1.2-0.6-2.3-1.6-2.9c-1.9-1-4-1.7-6.2-2
			c-0.5-0.1-1-0.2-1.5-0.3c-2.6-0.4-5-1.4-7.2-2.9c-1.8-1.5-2.8-3.7-2.7-6c0-1.7,0.5-3.4,1.4-4.9c1-1.5,2.4-2.7,4.1-3.5
			c1.9-0.9,4-1.3,6.1-1.3c5,0,9.2,1.8,11.7,5.5c0.3,0.4,0.2,1.1-0.2,1.4l-2.4,1.8c-0.4,0.3-1.1,0.2-1.4-0.2c0,0,0,0,0-0.1
			c-0.7-1.1-1.7-2-2.8-2.7c-1.5-0.9-3.1-1.3-4.8-1.2c-1.8-0.1-3.6,0.4-5.1,1.4c-1.1,0.8-1.7,2-1.7,3.4c0,0.8,0.2,1.6,0.7,2.2
			c0.6,0.7,1.4,1.2,2.3,1.5c1.6,0.6,3.2,1,4.8,1.3c0.6,0.1,1.1,0.2,1.6,0.3c2.5,0.4,4.9,1.4,7,2.9C105.2,30.7,106.2,33,106.1,35.3z"
			/>
	</g>
</g>
<g id="title">
	<g>
		<g class="st4">
			<path d="M112.4,65.3c0.6,0,1.2,0.1,1.6,0.3c0.5,0.2,0.9,0.5,1.2,0.8l-0.8,1.1c-0.3-0.3-0.6-0.5-0.9-0.7c-0.3-0.2-0.7-0.2-1.1-0.2
				c-0.2,0-0.4,0-0.6,0.1c-0.2,0.1-0.3,0.1-0.3,0.2c-0.1,0.1-0.1,0.2-0.1,0.3c0,0.1,0.1,0.3,0.2,0.4s0.3,0.2,0.6,0.2l1.1,0.3
				c0.7,0.2,1.1,0.4,1.5,0.7c0.3,0.3,0.5,0.7,0.5,1.2c0,0.5-0.1,0.9-0.4,1.2s-0.6,0.6-1,0.7c-0.4,0.2-0.9,0.2-1.4,0.2
				c-0.4,0-0.9,0-1.3-0.1c-0.4-0.1-0.8-0.2-1.1-0.4c-0.3-0.2-0.6-0.4-0.8-0.6l0.8-1.2c0.2,0.2,0.4,0.4,0.6,0.5
				c0.2,0.1,0.5,0.3,0.8,0.4c0.3,0.1,0.6,0.1,0.9,0.1c0.2,0,0.4,0,0.6-0.1s0.3-0.1,0.3-0.2s0.1-0.2,0.1-0.3c0-0.1,0-0.3-0.1-0.4
				c-0.1-0.1-0.3-0.2-0.6-0.3l-1.2-0.3c-0.4-0.1-0.7-0.2-1-0.3s-0.5-0.3-0.7-0.6c-0.2-0.2-0.3-0.5-0.3-0.9c0-0.4,0.1-0.8,0.3-1.1
				s0.6-0.6,1-0.8S111.8,65.3,112.4,65.3z"/>
			<path d="M116.1,74.1V67h1.5l0.1,1.8l-0.2-0.2c0-0.3,0.2-0.6,0.3-0.9c0.2-0.3,0.4-0.5,0.6-0.6c0.3-0.1,0.5-0.2,0.9-0.2
				c0.4,0,0.8,0.1,1.1,0.3s0.5,0.5,0.7,0.9c0.2,0.4,0.3,0.8,0.3,1.4c0,0.5-0.1,1-0.3,1.4c-0.2,0.4-0.4,0.7-0.7,0.9
				c-0.3,0.2-0.7,0.3-1.1,0.3c-0.5,0-0.8-0.1-1.1-0.4c-0.3-0.3-0.5-0.6-0.6-1l0.2-0.2v3.7H116.1z M118.8,70.9c0.3,0,0.5-0.1,0.7-0.3
				c0.2-0.2,0.3-0.6,0.3-1s-0.1-0.8-0.2-1c-0.2-0.2-0.4-0.3-0.7-0.3c-0.2,0-0.4,0.1-0.5,0.2c-0.1,0.1-0.2,0.3-0.3,0.5
				c-0.1,0.2-0.1,0.4-0.1,0.7c0,0.3,0,0.5,0.1,0.7c0.1,0.2,0.2,0.4,0.3,0.5C118.4,70.8,118.6,70.9,118.8,70.9z"/>
			<path d="M125,68.3c-0.1-0.1-0.3-0.2-0.5-0.2c-0.2,0-0.4,0.1-0.6,0.2c-0.2,0.1-0.3,0.3-0.3,0.6l-1.4-0.3c0.1-0.5,0.3-0.9,0.8-1.2
				c0.4-0.3,1-0.4,1.7-0.4c0.7,0,1.3,0.2,1.7,0.5c0.4,0.3,0.6,0.8,0.6,1.4v1.8c0,0.3,0.1,0.4,0.4,0.4c0.1,0,0.2,0,0.3,0l-0.1,1
				c-0.2,0.1-0.4,0.1-0.7,0.1c-0.4,0-0.7-0.1-1-0.3c-0.2-0.2-0.4-0.5-0.4-0.9v-0.1l0.2-0.1c0,0.3-0.1,0.5-0.2,0.7
				c-0.2,0.2-0.4,0.3-0.7,0.4c-0.3,0.1-0.6,0.1-0.9,0.1c-0.5,0-0.9-0.1-1.2-0.4s-0.5-0.6-0.5-1c0-0.4,0.1-0.7,0.3-0.9s0.6-0.4,1-0.5
				l1.9-0.4l0,0.9l-1,0.2c-0.2,0-0.4,0.1-0.4,0.2c-0.1,0.1-0.1,0.2-0.1,0.3c0,0.1,0,0.3,0.2,0.3c0.1,0.1,0.2,0.1,0.4,0.1
				c0.2,0,0.3,0,0.4-0.1c0.1-0.1,0.2-0.2,0.3-0.3s0.1-0.3,0.1-0.5v-1.3C125.2,68.6,125.1,68.4,125,68.3z"/>
			<path d="M129.1,66.4c-0.3,0-0.6-0.1-0.8-0.2c-0.2-0.1-0.2-0.3-0.2-0.6c0-0.3,0.1-0.5,0.2-0.6s0.4-0.2,0.8-0.2
				c0.3,0,0.6,0.1,0.8,0.2s0.2,0.3,0.2,0.6c0,0.3-0.1,0.5-0.2,0.6C129.6,66.4,129.4,66.4,129.1,66.4z M129.9,67v5h-1.7v-5H129.9z"/>
			<path d="M131.1,72v-5h1.5l0.1,1.7l-0.2-0.2c0.1-0.4,0.2-0.7,0.4-0.9s0.4-0.4,0.6-0.5s0.5-0.2,0.9-0.2c0.3,0,0.6,0.1,0.9,0.2
				c0.3,0.1,0.5,0.3,0.6,0.6c0.1,0.3,0.2,0.6,0.2,1V72h-1.7v-2.9c0-0.3-0.1-0.6-0.2-0.7c-0.1-0.1-0.3-0.2-0.5-0.2
				c-0.2,0-0.3,0-0.5,0.1c-0.1,0.1-0.3,0.2-0.3,0.4c-0.1,0.2-0.1,0.4-0.1,0.7V72H131.1z"/>
		</g>
	</g>
</g>
</svg>
