<svg xmlns="http://www.w3.org/2000/svg" width="442.56950707774854" height="225.9532082548843" viewBox="0 0 474 242" fill="none">
<g clip-path="url(#clip0_2372_71)">
<path d="M166.333 97.1C135.833 97.1 115.233 118.9 115.233 150.9C115.233 182.9 136.533 204.3 167.233 204.3C191.033 204.3 210.733 189.4 214.733 169.1C214.833 168.4 214.333 167.8 213.733 167.8H192.533C192.033 167.8 191.633 168.1 191.533 168.5C187.733 178.6 178.833 184 167.033 184C150.933 184 140.633 173.6 138.933 156.4H214.233C214.833 156.4 215.233 156 215.333 155.4C215.533 152.1 215.433 149.3 215.233 146.9C214.033 115.4 195.633 97.1 166.333 97.1ZM139.933 138.5C143.133 123.6 152.133 115.8 166.133 115.8C180.133 115.8 189.133 124 191.033 138.5H139.933ZM348.333 142.4L388.433 101.3C388.533 101.2 388.533 101.1 388.533 101C388.533 100.7 388.333 100.5 388.033 100.5H359.333C359.033 100.5 358.733 100.6 358.533 100.8L319.333 141.5V60.5C319.333 59.9 318.833 59.4 318.233 59.4H296.533C295.933 59.4 295.433 59.9 295.433 60.5V199.8C295.433 200.4 295.933 200.9 296.533 200.9H318.233C318.833 200.9 319.333 200.4 319.333 199.8V160.6H333.433L362.333 200.5C362.533 200.8 362.833 200.9 363.233 200.9H389.833C390.233 200.9 390.633 200.5 390.633 200.1C390.633 199.9 390.533 199.8 390.433 199.6L348.333 142.4ZM57.9334 97.1C41.8334 97.1 30.4334 108.8 28.5334 114H23.8334V101.7C23.8334 101.1 23.3334 100.6 22.7334 100.6H1.8334C1.2334 100.6 0.733398 101.1 0.733398 101.7C0.933398 105.7 1.1334 111.9 1.1334 119.1V240.9C1.1334 241.5 1.6334 242 2.2334 242H23.7334C24.3334 242 24.8334 241.5 24.8334 240.9V193.2H29.5334C33.9334 200.2 44.9334 204.4 56.9334 204.4C87.2334 204.4 106.533 180.4 106.533 150.6C106.533 120.8 88.8334 97.1 57.9334 97.1ZM52.9334 183.5C35.7334 183.5 23.5334 170.3 23.5334 150.7C23.5334 131.1 35.7334 118.3 52.9334 118.3C70.1334 118.3 81.9334 131 81.9334 150.7C81.9334 170.4 69.9334 183.5 52.9334 183.5ZM254.933 110.9H250.233L250.133 101.6C250.133 101 249.633 100.5 249.033 100.5H227.433C226.833 100.5 226.333 101 226.333 101.6C226.533 106.1 226.733 112.5 226.733 119V199.8C226.733 200.4 227.233 200.9 227.833 200.9H249.533C250.133 200.9 250.633 200.4 250.633 199.8V151C250.633 131.8 261.333 121.2 279.433 121.2C281.233 121.2 282.933 121.3 284.733 121.5C285.333 121.6 285.933 121.1 285.933 120.4V100.4C285.933 99.9 285.633 99.5 285.133 99.4C283.933 99.1 282.133 98.9 280.333 98.8C269.133 99.1 259.733 102.1 254.933 110.9ZM418.633 0.9C418.733 0.4 419.233 0 419.733 0H427.233C427.733 0 428.233 0.4 428.333 0.9L432.733 33.1C432.833 33.8 432.233 34.4 431.433 34.3L423.633 33H423.233L415.433 34.3C414.733 34.4 414.033 33.8 414.133 33.1L418.633 0.9ZM472.733 58.2C473.333 58.2 473.733 57.7 473.733 57.1V49.7C473.733 49.1 473.333 48.7 472.733 48.6L423.633 44H423.433L374.233 48.6C373.633 48.7 373.233 49.1 373.233 49.7V57.1C373.233 57.7 373.633 58.1 374.233 58.2L410.533 61.2C410.833 61.2 411.033 61.3 411.233 61.5L413.833 64.1C414.033 64.3 414.133 64.5 414.133 64.7L418.633 99.5C418.733 100 419.133 100.4 419.733 100.4H427.233C427.733 100.4 428.233 100 428.333 99.5L432.833 64.7C432.833 64.5 432.933 64.2 433.133 64.1L435.733 61.5C435.933 61.3 436.133 61.2 436.433 61.2L472.733 58.2Z" fill="#14140F"/>
</g>
<defs>
<clipPath id="clip0_2372_71">
<rect width="473" height="242" fill="white" transform="translate(0.733398)"/>
</clipPath>
</defs>
</svg>