<svg id="logosandtypes_com" xmlns="http://www.w3.org/2000/svg" viewBox="0 0 150 150"><path d="M0 0h150v150H0V0z" fill="none"/><linearGradient id="a" gradientUnits="userSpaceOnUse" x1="150.5871" y1="-7.4967" x2="167.3902" y2="16.0003" gradientTransform="matrix(1 0 0 -1 -74.16 123.46)"><stop offset="0" stop-color="#690349"/><stop offset=".34" stop-color="#660347"/><stop offset=".62" stop-color="#5b0240"/><stop offset=".88" stop-color="#4a0234"/><stop offset="1" stop-color="#3f012c"/></linearGradient><path d="M107.8 114.4l-32-17.3v42.8l32.1-18.6c1.9-1.1 2.5-3.5 1.5-5.4-.5-.6-1-1.2-1.6-1.5z" fill="url(#a)"/><linearGradient id="b" gradientUnits="userSpaceOnUse" x1="166.8113" y1="104.0253" x2="130.8843" y2="82.786" gradientTransform="matrix(1 0 0 -1 -74.16 123.46)"><stop offset="0" stop-color="#690349"/><stop offset=".3" stop-color="#650346"/><stop offset=".62" stop-color="#58023e"/><stop offset=".94" stop-color="#44012f"/><stop offset="1" stop-color="#3f012c"/></linearGradient><path d="M75.7 7.2L42.5 26.5c-2.4 1.4-2.1 4.9.4 6.3l34.3 17.9L114 29.4 75.7 7.2z" fill="url(#b)"/><linearGradient id="c" gradientUnits="userSpaceOnUse" x1="111.558" y1="49.7936" x2="188.0817" y2="49.7936" gradientTransform="matrix(1 0 0 -1 -74.16 123.46)"><stop offset="0" stop-color="#53023a"/><stop offset=".22" stop-color="#5f0342"/><stop offset=".5" stop-color="#690349"/><stop offset="1" stop-color="#54023a"/></linearGradient><path d="M110.1 72.5c-1.6-1.6-3.4-2.9-5.3-4-11.4-6.6-50.2-28.9-61-35.1-1.7-1-4-5.5.2-7.7-4.5 2.4-6.3 6.1-6.4 11.2-.2 9.4-.1 18.9-.1 28.3 0 3.8 1.5 7.1 4.2 9.8 1.4 1.4 3 2.7 4.7 3.6 12.2 7.1 50.5 29.5 61 35.5 2.2 1.2 2.4 5.6-.3 7.7 4.6-2.8 6.8-7.2 6.9-12.6V81.9c-.1-3.6-1.4-6.9-3.9-9.4z" fill="url(#c)"/></svg>