<?xml version="1.0" encoding="UTF-8"?>
<svg width="184px" height="40px" viewBox="0 0 184 40" version="1.1" xmlns="http://www.w3.org/2000/svg" xmlns:xlink="http://www.w3.org/1999/xlink">
    <!-- Generator: Sketch 49 (51002) - http://www.bohemiancoding.com/sketch -->
    <title>versus</title>
    <desc>Created with Sketch.</desc>
    <defs></defs>
    <g id="Style-guide" stroke="none" stroke-width="1" fill="none" fill-rule="evenodd">
        <g id="Versus_Design_System" transform="translate(-157.000000, -336.000000)" fill="#ffffff">
            <g id="Group-10" transform="translate(50.000000, 232.000000)">
                <path d="M256.768813,136.188935 L256.768813,143.044118 L246.842342,143.044118 L246.842342,137.75 L246.621754,137.75 C245.298218,139.955893 243.582549,141.549015 241.474695,142.529412 C239.366842,143.509809 237.21,144 235.004107,144 C232.209975,144 229.918332,143.632357 228.129107,142.897059 C226.339882,142.161761 224.930583,141.120105 223.901166,139.772059 C223.610781,139.391793 223.344776,138.988126 223.103151,138.561055 C222.271611,139.604452 221.29027,140.486057 220.159115,141.205882 C218.54146,142.235299 216.690988,142.958331 214.607644,143.375 C212.524301,143.791669 210.404224,144 208.24735,144 C206.041457,144 203.884616,143.779414 201.776762,143.338235 C199.668908,142.897057 197.793927,142.16177 196.151762,141.132353 C194.509597,140.102936 193.161571,138.742656 192.107644,137.051471 C191.053718,135.360286 190.477743,133.240209 190.379703,130.691176 L200.306174,130.691176 C200.306174,131.818633 200.539015,132.786761 201.004703,133.595588 C201.470392,134.404416 202.070876,135.066174 202.806174,135.580882 C203.541472,136.095591 204.387051,136.475489 205.342939,136.720588 C206.298826,136.965688 207.291463,137.088235 208.32088,137.088235 C209.056177,137.088235 209.828229,137.002452 210.637056,136.830882 C211.445884,136.659313 212.181171,136.389708 212.842939,136.022059 C213.504707,135.65441 214.056172,135.164219 214.49735,134.551471 C214.938529,133.938722 215.159115,133.166671 215.159115,132.235294 C215.159115,130.666659 214.117459,129.4902 212.034115,128.705882 C209.950771,127.921565 207.046389,127.137259 203.32088,126.352941 C201.801264,126.009802 200.318436,125.605394 198.87235,125.139706 C197.426265,124.674017 196.139513,124.061278 195.012056,123.301471 C193.8846,122.541663 192.977746,121.58579 192.291468,120.433824 C191.60519,119.281857 191.262056,117.872557 191.262056,116.205882 C191.262056,115.335757 191.322291,114.521239 191.442762,113.762324 C190.103752,113.879545 188.933296,114.179357 187.931373,114.661765 C186.607837,115.299023 185.541671,116.169112 184.732843,117.272059 C183.924016,118.375006 183.348041,119.661757 183.004902,121.132353 C182.661763,122.602949 182.490196,124.19607 182.490196,125.911765 L182.490196,143.044118 L172.04902,143.044118 L172.04902,136.945573 C170.892693,138.668 169.524232,140.039079 167.943627,141.058824 C164.904397,143.019618 161.227963,144 156.914216,144 C153.924005,144 151.227953,143.522064 148.82598,142.566176 C146.424008,141.610289 144.389714,140.250009 142.723039,138.485294 C141.056364,136.720579 139.769612,134.612757 138.862745,132.161765 C138.113121,130.135753 137.673324,127.942297 137.543347,125.581351 L131.632353,143.044118 L120.014706,143.044118 L107,105.029412 L117.955882,105.029412 L125.970588,130.985294 L126.117647,130.985294 L134.132353,105.029412 L144.5,105.029412 L142.907993,109.732656 C144.615902,107.962133 146.64982,106.565967 149.009804,105.544118 C151.387267,104.514701 154.022044,104 156.914216,104 C160.149526,104 162.968125,104.624994 165.370098,105.875 C167.772071,107.125006 169.74509,108.803911 171.289216,110.911765 C171.555212,111.274871 171.80848,111.646705 172.04902,112.027265 L172.04902,105.029412 L181.97549,105.029412 L181.97549,112.088235 L182.122549,112.088235 C182.612748,110.911759 183.274506,109.821083 184.107843,108.816176 C184.941181,107.811269 185.897053,106.953435 186.97549,106.242647 C188.053927,105.531859 189.205876,104.980394 190.431373,104.588235 C191.656869,104.196076 192.931366,104 194.254902,104 C194.94118,104 195.700976,104.122548 196.534314,104.367647 L196.534314,106.433502 C198.090002,105.542426 199.837467,104.915088 201.776762,104.551471 C203.737556,104.183822 205.74734,104 207.806174,104 C209.865008,104 211.862537,104.196076 213.798821,104.588235 C215.735105,104.980394 217.463029,105.642152 218.982644,106.573529 C219.757735,107.048585 220.465868,107.603341 221.107048,108.237804 L221.107048,105.029412 L231.548225,105.029412 L231.548225,126.5 C231.548225,129.637271 232.038416,131.977933 233.018813,133.522059 C233.99921,135.066184 235.739389,135.838235 238.239401,135.838235 C241.082553,135.838235 243.141356,134.992656 244.415872,133.301471 C245.690388,131.610286 246.327636,128.828451 246.327636,124.955882 L246.327636,105.029412 L256.768813,105.029412 L256.768813,112.821933 C257.007744,111.832613 257.363136,110.950795 257.834989,110.176471 C258.790877,108.607835 260.053119,107.370103 261.621754,106.463235 C263.190389,105.556368 264.955078,104.919119 266.915872,104.551471 C268.876666,104.183822 270.88645,104 272.945284,104 C275.004117,104 277.001646,104.196076 278.937931,104.588235 C280.874215,104.980394 282.602139,105.642152 284.121754,106.573529 C285.64137,107.504907 286.903612,108.742639 287.908519,110.286765 C288.913426,111.83089 289.51391,113.7794 289.709989,116.132353 L279.783519,116.132353 C279.636459,114.122539 278.876663,112.762258 277.504107,112.051471 C276.131551,111.340683 274.51392,110.985294 272.651166,110.985294 C272.062928,110.985294 271.425679,111.022058 270.739401,111.095588 C270.053123,111.169118 269.428129,111.32843 268.864401,111.573529 C268.300673,111.818629 267.822736,112.174017 267.430578,112.639706 C267.038419,113.105394 266.842342,113.730388 266.842342,114.514706 C266.842342,115.446083 267.185476,116.205879 267.871754,116.794118 C268.558032,117.382356 269.452631,117.860292 270.555578,118.227941 C271.658524,118.59559 272.920767,118.926469 274.342342,119.220588 C275.763918,119.514707 277.209982,119.833332 278.680578,120.176471 C280.200193,120.51961 281.683021,120.936272 283.129107,121.426471 C284.575193,121.916669 285.861945,122.566172 286.989401,123.375 C288.116858,124.183828 289.023711,125.188719 289.709989,126.389706 C290.396267,127.590692 290.739401,129.073521 290.739401,130.838235 C290.739401,133.338248 290.236955,135.433815 289.232048,137.125 C288.227141,138.816185 286.91588,140.176465 285.298225,141.205882 C283.68057,142.235299 281.830098,142.958331 279.746754,143.375 C277.66341,143.791669 275.543334,144 273.38646,144 C271.180567,144 269.023725,143.779414 266.915872,143.338235 C264.808018,142.897057 262.933037,142.16177 261.290872,141.132353 C259.648707,140.102936 258.300681,138.742656 257.246754,137.051471 C257.074703,136.775389 256.915389,136.487877 256.768813,136.188935 Z M256.768813,130.691176 L265.445284,130.691176 C265.445284,131.818633 265.678124,132.786761 266.143813,133.595588 C266.609502,134.404416 267.209986,135.066174 267.945284,135.580882 C268.680581,136.095591 269.526161,136.475489 270.482048,136.720588 C271.437935,136.965688 272.430572,137.088235 273.459989,137.088235 C274.195287,137.088235 274.967338,137.002452 275.776166,136.830882 C276.584993,136.659313 277.32028,136.389708 277.982048,136.022059 C278.643816,135.65441 279.195281,135.164219 279.63646,134.551471 C280.077639,133.938722 280.298225,133.166671 280.298225,132.235294 C280.298225,130.666659 279.256568,129.4902 277.173225,128.705882 C275.089881,127.921565 272.185498,127.137259 268.459989,126.352941 C266.940374,126.009802 265.457546,125.605394 264.01146,125.139706 C262.565374,124.674017 261.278622,124.061278 260.151166,123.301471 C259.023709,122.541663 258.116856,121.58579 257.430578,120.433824 C257.15443,119.97029 256.933842,119.465091 256.768813,118.918223 L256.768813,130.691176 Z M221.107048,122.879152 L221.107048,116.132353 L214.644409,116.132353 C214.49735,114.122539 213.737553,112.762258 212.364997,112.051471 C210.992441,111.340683 209.374811,110.985294 207.512056,110.985294 C206.923818,110.985294 206.286569,111.022058 205.600291,111.095588 C204.914014,111.169118 204.28902,111.32843 203.725291,111.573529 C203.161563,111.818629 202.683627,112.174017 202.291468,112.639706 C201.899309,113.105394 201.703233,113.730388 201.703233,114.514706 C201.703233,115.446083 202.046366,116.205879 202.732644,116.794118 C203.418922,117.382356 204.313521,117.860292 205.416468,118.227941 C206.519415,118.59559 207.781657,118.926469 209.203233,119.220588 C210.624808,119.514707 212.070872,119.833332 213.541468,120.176471 C215.061083,120.51961 216.543912,120.936272 217.989997,121.426471 C219.127616,121.812104 220.166627,122.296328 221.107048,122.879152 Z M172.04902,131.279412 L172.04902,126.573529 L147.943627,126.573529 C148.090687,129.955899 148.948522,132.406855 150.517157,133.926471 C152.085792,135.446086 154.340672,136.205882 157.281863,136.205882 C159.389716,136.205882 161.203424,135.678927 162.723039,134.625 C164.242655,133.571073 165.174018,132.455888 165.517157,131.279412 L172.04902,131.279412 Z M164.928922,119.955882 C164.438723,117.30881 163.568634,115.299026 162.318627,113.926471 C161.068621,112.553915 159.16913,111.867647 156.620098,111.867647 C154.953423,111.867647 153.568633,112.149507 152.465686,112.713235 C151.36274,113.276964 150.480395,113.975486 149.818627,114.808824 C149.156859,115.642161 148.691178,116.524505 148.421569,117.455882 C148.151959,118.38726 147.992647,119.220585 147.943627,119.955882 L164.928922,119.955882 Z" id="versus"></path>
            </g>
        </g>
    </g>
</svg>
